<svg width="64" height="24" xmlns="http://www.w3.org/2000/svg"><path d="M0 9.103C0 7.73.206 6.481.617 5.36c.412-1.122.979-2.078 1.701-2.868A7.664 7.664 0 0 1 4.854.653C5.82.218 6.872 0 8.006 0c.867 0 1.635.137 2.302.412.667.275 1.223.573 1.668.893.533.39.99.813 1.367 1.271h.167V.344h3.503v17.52H13.51v-2.405h-.167a7.192 7.192 0 0 1-1.367 1.374c-.445.343-1.001.658-1.668.944-.667.287-1.435.43-2.302.43-1.134 0-2.185-.218-3.152-.653a7.664 7.664 0 0 1-2.536-1.838c-.722-.79-1.29-1.746-1.7-2.868C.205 11.726 0 10.478 0 9.103zm3.24 0c0 1.886.488 3.323 1.464 4.311s2.273 1.483 3.892 1.483c1.523 0 2.766-.495 3.73-1.483.964-.988 1.446-2.425 1.446-4.31 0-1.886-.482-3.323-1.446-4.311-.964-.989-2.207-1.483-3.73-1.483-1.619 0-2.916.494-3.892 1.483-.976.988-1.463 2.425-1.463 4.31zM20.254.35h3.62v2.451h.172a5.58 5.58 0 0 1 1.276-1.4c.46-.35 1.028-.672 1.706-.963C27.705.146 28.55 0 29.561 0c2.16 0 3.85.636 5.068 1.908 1.218 1.272 1.827 3.146 1.827 5.62v10.679h-3.62V7.878c0-1.587-.345-2.743-1.034-3.466-.69-.724-1.724-1.086-3.103-1.086-.69 0-1.327.129-1.913.385a4.739 4.739 0 0 0-1.534 1.068 4.766 4.766 0 0 0-1.017 1.646c-.241.642-.362 1.36-.362 2.153v9.629h-3.62V.35zM38.886 0h3.442v14.88h4.9l.57 3.327h-8.912V0zm11.807 0L54.4 14.057h1.853L60.294 0H64l-7.075 24H53.22l2.021-6.514h-3.537L46.987 0h3.706z" fill="#000" fill-rule="evenodd"/></svg>