<?xml version="1.0" encoding="UTF-8"?>
<svg width="64px" height="24px" viewBox="0 0 64 24" version="1.1" xmlns="http://www.w3.org/2000/svg" xmlns:xlink="http://www.w3.org/1999/xlink">
    <!-- Generator: Sketch 52.5 (67469) - http://www.bohemiancoding.com/sketch -->
    <title>anly-logo</title>
    <desc>Created with Sketch.</desc>
    <g id="website" stroke="none" stroke-width="1" fill="none" fill-rule="evenodd">
        <g id="anly1440-1" transform="translate(-140.000000, -40.000000)" fill="#000000">
            <path d="M140,49.1034483 C140,47.7293429 140.205709,46.4811973 140.617126,45.3590111 C141.028543,44.2368248 141.595632,43.2806766 142.318392,42.490566 C143.041152,41.7004554 143.886225,41.0878336 144.853611,40.6527001 C145.820998,40.2175665 146.87178,40 148.005957,40 C148.873269,40 149.640506,40.1374105 150.307669,40.4122316 C150.974832,40.6870527 151.530802,40.9847757 151.975577,41.3054001 C152.509308,41.6947298 152.965202,42.1184127 153.343261,42.5764476 L153.510052,42.5764476 L153.510052,40.3435264 L157.012658,40.3435264 L157.012658,57.8633702 L153.510052,57.8633702 L153.510052,55.4586858 L153.343261,55.4586858 C152.965202,55.9625246 152.509308,56.4205595 151.975577,56.8327912 C151.530802,57.1763175 150.974832,57.4912168 150.307669,57.7774886 C149.640506,58.0637604 148.873269,58.2068966 148.005957,58.2068966 C146.87178,58.2068966 145.820998,57.98933 144.853611,57.5541965 C143.886225,57.1190629 143.041152,56.5064411 142.318392,55.7163305 C141.595632,54.9262199 141.028543,53.9700717 140.617126,52.8478855 C140.205709,51.7256992 140,50.4775537 140,49.1034483 Z M143.240506,49.1034483 C143.240506,50.9890465 143.728413,52.4259635 144.704227,53.4141988 C145.68004,54.4024341 146.977158,54.8965517 148.59558,54.8965517 C150.118802,54.8965517 151.362369,54.4024341 152.326282,53.4141988 C153.290195,52.4259635 153.772152,50.9890465 153.772152,49.1034483 C153.772152,47.2178501 153.290195,45.7809331 152.326282,44.7926978 C151.362369,43.8044625 150.118802,43.3103448 148.59558,43.3103448 C146.977158,43.3103448 145.68004,43.8044625 144.704227,44.7926978 C143.728413,45.7809331 143.240506,47.2178501 143.240506,49.1034483 Z M160.253165,40.3501326 L163.872879,40.3501326 L163.872879,42.801061 L164.045246,42.801061 C164.366999,42.287533 164.792172,41.8206897 165.320765,41.4005305 C165.780411,41.0503979 166.349223,40.7294428 167.027202,40.4376658 C167.70518,40.1458888 168.54978,40 169.561002,40 C171.72134,40 173.41054,40.6360744 174.628602,41.9082228 C175.846665,43.1803712 176.455696,45.0535807 176.455696,47.5278515 L176.455696,58.2068966 L172.835982,58.2068966 L172.835982,47.8779841 C172.835982,46.2907164 172.491247,45.1352787 171.801778,44.4116711 C171.112308,43.6880635 170.078104,43.3262599 168.699165,43.3262599 C168.009696,43.3262599 167.371936,43.4546421 166.785887,43.7114058 C166.199838,43.9681696 165.688482,44.3241379 165.251818,44.7793103 C164.815154,45.2344828 164.476165,45.7830241 164.234851,46.4249337 C163.993536,47.0668433 163.872879,47.7846152 163.872879,48.5782493 L163.872879,58.2068966 L160.253165,58.2068966 L160.253165,40.3501326 Z M178.886076,40 L182.327563,40 L182.327563,54.8806366 L187.228524,54.8806366 L187.797468,58.2068966 L178.886076,58.2068966 L178.886076,40 Z M190.693069,40 L194.398797,54.0571429 L196.251661,54.0571429 L200.294272,40 L204,40 L196.925429,64 L193.219702,64 L195.241008,57.4857143 L191.703722,57.4857143 L186.987342,40 L190.693069,40 Z" id="anly-logo"></path>
        </g>
    </g>
</svg>