<?xml version="1.0" encoding="UTF-8"?>
<svg width="80px" height="30px" viewBox="0 0 80 30" version="1.1" xmlns="http://www.w3.org/2000/svg" xmlns:xlink="http://www.w3.org/1999/xlink">
    <!-- Generator: sketchtool 52.5 (67469) - http://www.bohemiancoding.com/sketch -->
    <title>C4B84849-D503-4A82-9BE9-7A30AC597A3A</title>
    <desc>Created with sketchtool.</desc>
    <g id="website" stroke="none" stroke-width="1" fill="none" fill-rule="evenodd">
        <g id="anly1440" transform="translate(-140.000000, -48.000000)" fill="#000000">
            <path d="M140,59.3793103 C140,57.6616786 140.257136,56.1014966 140.771407,54.6987638 C141.285679,53.296031 141.994539,52.1008458 142.89799,51.1132075 C143.80144,50.1255693 144.857781,49.359792 146.067014,48.8158751 C147.276247,48.2719581 148.589724,48 150.007446,48 C151.091586,48 152.050633,48.1717632 152.884587,48.5152895 C153.718541,48.8588159 154.413502,49.2309696 154.969471,49.6317502 C155.636634,50.1184123 156.206503,50.6480158 156.679077,51.2205595 L156.887565,51.2205595 L156.887565,48.4294079 L161.265823,48.4294079 L161.265823,70.3292128 L156.887565,70.3292128 L156.887565,67.3233572 L156.679077,67.3233572 C156.206503,67.9531557 155.636634,68.5256994 154.969471,69.0409889 C154.413502,69.4703969 153.718541,69.864021 152.884587,70.2218608 C152.050633,70.5797005 151.091586,70.7586207 150.007446,70.7586207 C148.589724,70.7586207 147.276247,70.4866625 146.067014,69.9427456 C144.857781,69.3988287 143.80144,68.6330514 142.89799,67.6454131 C141.994539,66.6577749 141.285679,65.4625897 140.771407,64.0598569 C140.257136,62.657124 140,61.0969421 140,59.3793103 Z M144.050633,59.3793103 C144.050633,61.7363081 144.660517,63.5324544 145.880283,64.7677485 C147.10005,66.0030426 148.721448,66.6206897 150.744475,66.6206897 C152.648502,66.6206897 154.202961,66.0030426 155.407852,64.7677485 C156.612744,63.5324544 157.21519,61.7363081 157.21519,59.3793103 C157.21519,57.0223126 156.612744,55.2261663 155.407852,53.9908722 C154.202961,52.7555781 152.648502,52.137931 150.744475,52.137931 C148.721448,52.137931 147.10005,52.7555781 145.880283,53.9908722 C144.660517,55.2261663 144.050633,57.0223126 144.050633,59.3793103 Z M165.316456,48.4376658 L169.841099,48.4376658 L169.841099,51.5013263 L170.056558,51.5013263 C170.458748,50.8594162 170.990215,50.2758621 171.650956,49.7506631 C172.225514,49.3129973 172.936529,48.9118035 173.784002,48.5470822 C174.631475,48.182361 175.687225,48 176.951252,48 C179.651675,48 181.763175,48.7950931 183.285753,50.3852785 C184.808331,51.975464 185.56962,54.3169759 185.56962,57.4098143 L185.56962,70.7586207 L181.044977,70.7586207 L181.044977,57.8474801 C181.044977,55.8633954 180.614059,54.4190984 179.752222,53.5145889 C178.890385,52.6100794 177.59763,52.1578249 175.873956,52.1578249 C175.01212,52.1578249 174.214921,52.3183026 173.482359,52.6392573 C172.749798,52.960212 172.110603,53.4051724 171.564772,53.9741379 C171.018942,54.5431034 170.595206,55.2287801 170.293563,56.0311671 C169.99192,56.8335542 169.841099,57.730769 169.841099,58.7228117 L169.841099,70.7586207 L165.316456,70.7586207 L165.316456,48.4376658 Z M188.607595,48 L192.909454,48 L192.909454,66.6007958 L199.035655,66.6007958 L199.746835,70.7586207 L188.607595,70.7586207 L188.607595,48 Z M203.366337,48 L207.998496,65.5714286 L210.314576,65.5714286 L215.367841,48 L220,48 L211.156787,78 L206.524627,78 L209.05126,69.8571429 L204.629653,69.8571429 L198.734177,48 L203.366337,48 Z" id="anly-logo"></path>
        </g>
    </g>
</svg>